<?xml version="1.0" standalone="no"?>
<!DOCTYPE svg PUBLIC "-//W3C//DTD SVG 20010904//EN"
 "http://www.w3.org/TR/2001/REC-SVG-20010904/DTD/svg10.dtd">
<svg version="1.0" xmlns="http://www.w3.org/2000/svg"
 width="21.000000pt" height="28.000000pt" viewBox="0 0 21.000000 28.000000"
 preserveAspectRatio="xMidYMid meet">

<g transform="translate(0.000000,28.000000) scale(0.100000,-0.100000)"
fill="#000000" stroke="none">
<path d="M0 140 l0 -140 105 0 105 0 0 140 0 140 -105 0 -105 0 0 -140z m110
115 c0 -8 -4 -15 -10 -15 -5 0 -10 7 -10 15 0 8 5 15 10 15 6 0 10 -7 10 -15z
m38 -74 c11 -20 23 -51 27 -69 6 -28 4 -32 -13 -32 -11 0 -26 7 -33 17 -13 15
-12 15 9 4 29 -15 29 0 2 63 -19 45 -39 57 -66 38 -11 -7 -44 -85 -44 -103 0
-6 7 -6 20 1 13 7 19 18 16 28 -3 9 3 28 13 40 l17 24 18 -27 c13 -20 15 -30
7 -38 -8 -8 -11 -5 -11 12 0 29 -24 23 -28 -7 -3 -20 -36 -52 -54 -52 -12 0
-9 27 8 81 26 78 77 87 112 20z m-4 -119 c-7 -2 -10 -10 -7 -18 3 -8 1 -14 -5
-14 -5 0 -13 7 -16 16 -4 10 -13 13 -27 9 -15 -5 -19 -4 -14 5 4 7 17 9 34 5
24 -6 25 -5 9 11 -16 16 -18 16 -43 0 -14 -10 -32 -15 -38 -12 -7 2 -5 5 4 5
9 1 24 10 33 20 17 19 18 19 50 -2 19 -12 27 -23 20 -25z m-58 -27 c18 -13 18
-14 -4 -8 -12 3 -25 9 -28 14 -8 14 10 11 32 -6z"/>
</g>
</svg>
